# xmcd CD database file
#
# Track frame offsets:
#	150
#	11380
#	23575
#	40235
#	51395
#	66135
#	82398
#	96282
#	111010
#	121343
#	129602
#	144777
#	161539
#	178411
#
# Disc length: 2809 seconds
#
# Revision: 0
# Processed by: cddbd v1.5.1PL0 Copyright (c) Steve Scherf et al.
# Submitted via: CDex 1.50
#
DISCID=bd0af70e
DTITLE=Donna Boyd - I've Got My Standards
DYEAR=2005
DGENRE=Country
TTITLE0=Leavin' On Your Mind
TTITLE1=Mean To Me
TTITLE2=Why Can't He Be like You
TTITLE3=The Wayward Wind
TTITLE4=I Can't Help It (If I'm Still In Love With You)
TTITLE5=So Wrong
TTITLE6=Walkin' After Midnight
TTITLE7=Cry Cry Darlin'
TTITLE8=Baby We're Really In Love
TTITLE9=Why Don't You Love Me (with Peter Pratt)
TTITLE10=Your Cheating Heart
TTITLE11=Then You Can Tell Me Goodbye
TTITLE12=I'll Fly Away
TTITLE13=Amazing Grace
EXTD=YEAR: 2005
EXTT0=
EXTT1=
EXTT2=
EXTT3=
EXTT4=
EXTT5=
EXTT6=
EXTT7=
EXTT8=
EXTT9=
EXTT10=
EXTT11=
EXTT12=
EXTT13=
PLAYORDER=
